<svg xmlns="http://www.w3.org/2000/svg">
<defs>
<font
       font-weight="400,700"
       font-style="normal"
       class="str41"
       id="FontID0"
       font-variant="normal"
       horiz-origin-x="0"
       horiz-origin-y="0"
       horiz-adv-x="90"
       vert-origin-x="45"
       vert-origin-y="90"
       vert-adv-y="90">
      <font-face
         font-family="Arial"
         id="font-face2183" />
      <missing-glyph
         id="missing-glyph2185">
        <path
           id="path2187"
           d="M0 0z" />
      </missing-glyph>
      <glyph
         horiz-adv-x="277"
         id="glyph2189"
         unicode=" " />
      <glyph
         horiz-adv-x="777"
         id="glyph2191"
         unicode="Θ">
        <path
           id="path2193"
           d="M41.9998 353.503c0,116.492 30.6613,208.168 91.8303,274.664 61.1691,66.4958 146.007,99.8382 254.338,99.8382 109.004,0 194.338,-33.6731 255.838,-101.007 61.4998,-67.4997 92.3264,-157.499 92.3264,-269.999 0,-112.665 -30.8267,-202.334 -92.3264,-269.16 -61.4998,-66.673 -142.677,-100.004 -243.672,-100.004 -79.9957,0 -145.003,13.996 -194.999,41.9998 -49.9959,28.0038 -89.6689,69.8265 -119.173,125.669 -29.492,55.8305 -44.1612,121.83 -44.1612,197.999zm148.995 4.83069c0,-83.3383 19.1692,-145.334 57.5076,-185.999 38.492,-40.6652 85.4997,-61.0037 141.165,-61.0037 55.3344,0 102,20.1731 140.161,60.3423 38.0077,40.1573 56.9998,102.826 56.9998,188.161 0,80.5036 -17.4921,141.33 -52.6651,182.669 -35.1613,41.3266 -83.3264,61.9958 -144.495,61.9958 -61.8305,0 -110.504,-20.9999 -145.83,-62.9998 -35.3384,-41.9998 -52.8423,-103.004 -52.8423,-183.165zm82.0036 -61.0037l0 121.169 232.334 0 0 -121.169 -232.334 0z" />
      </glyph>
      <glyph
         horiz-adv-x="722"
         id="glyph2195"
         unicode="Κ">
        <path
           id="path2197"
           d="M74.669 0l0 715.828 144.495 0 0 -317.833 292.003 317.833 194.338 0 -269.503 -278.834 284.16 -436.994 -186.991 0 -196.676 335.999 -117.33 -119.669 0 -216.33 -144.495 0z" />
      </glyph>
      <glyph
         horiz-adv-x="722"
         id="glyph2199"
         unicode="Ν">
        <path
           id="path2201"
           d="M74.1611 0l0 715.828 140.669 0 293.007 -477.99 0 477.99 134.326 0 0 -715.828 -145.169 0 -288.495 466.829 0 -466.829 -134.338 0z" />
      </glyph>
      <glyph
         horiz-adv-x="722"
         id="glyph2203"
         unicode="Η">
        <path
           id="path2205"
           d="M73.169 0l0 715.828 144.661 0 0 -281.656 283.168 0 0 281.656 144.507 0 0 -715.828 -144.507 0 0 313.003 -283.168 0 0 -313.003 -144.661 0z" />
      </glyph>
      <glyph
         horiz-adv-x="667"
         id="glyph2207"
         unicode="Λ">
        <path
           id="path2209"
           d="M410.668 715.828l255.838 -715.828 -156.673 0 -181.169 529.333 -175.334 -529.333 -153.33 0 256.334 715.828 154.334 0z" />
      </glyph>
      <glyph
         horiz-adv-x="667"
         id="glyph2211"
         unicode="Ε">
        <path
           id="path2213"
           d="M72.8383 0l0 715.828 530.667 0 0 -121.157 -386.172 0 0 -158.669 359.337 0 0 -120.507 -359.337 0 0 -194.834 399.837 0 0 -120.661 -544.333 0z" />
      </glyph>
      <glyph
         horiz-adv-x="277"
         id="glyph2215"
         unicode="Ι">
        <path
           id="path2217"
           d="M68.3383 0l0 715.828 144.495 0 0 -715.828 -144.495 0z" />
      </glyph>
      <glyph
         horiz-adv-x="722"
         id="glyph2219"
         unicode="Α">
        <path
           id="path2221"
           d="M718.332 0l-157.334 0 -62.5037 162.661 -286.156 0 -59.0076 -162.661 -153.33 0 278.834 715.828 152.834 0 286.664 -715.828zm-266.16 283.168l-98.6689 265.664 -96.6728 -265.664 195.342 0z" />
      </glyph>
      <glyph
         horiz-adv-x="777"
         id="glyph2223"
         unicode="Ο">
        <path
           id="path2225"
           d="M48.3377 348.663c0,118.84 31.8292,211.843 95.663,278.998 63.8338,67.1679 146.16,100.833 247.169,100.833 65.9935,0 125.67,-15.8336 178.664,-47.3253 52.9946,-31.6672 93.5032,-75.6719 121.337,-132.163 27.8336,-56.3422 41.656,-120.5 41.656,-192.001 0,-72.6752 -14.4973,-137.67 -43.8292,-194.836 -29.332,-57.3411 -70.826,-100.671 -124.495,-130.165 -53.8315,-29.5074 -111.672,-44.1667 -173.832,-44.1667 -67.5054,0 -127.668,16.1576 -180.676,48.8236 -53.1566,32.5041 -93.3278,77.0082 -120.662,133.337 -27.3342,56.1667 -40.9946,115.83 -40.9946,178.664zm97.6607 -1.49832c0,-86.3356 23.1632,-154.165 69.5031,-203.825 46.5019,-49.674 104.666,-74.511 174.669,-74.511 71.3254,0 130.003,24.999 175.992,75.1724 46.0025,50.16 69.1657,121.337 69.1657,213.504 0,58.1645 -9.9888,108.999 -29.6559,152.491 -19.6671,43.5053 -48.4997,77.1702 -86.3356,101.17 -37.9979,23.8381 -80.5043,35.8382 -127.668,35.8382 -67.1679,0 -124.833,-23.0012 -173.171,-69.1657 -48.3377,-46.0025 -72.4998,-123.011 -72.4998,-230.674z" />
      </glyph>
      <glyph
         horiz-adv-x="610"
         id="glyph2227"
         unicode="Τ">
        <path
           id="path2229"
           d="M233.834 0l0 594.671 -212.338 0 0 121.157 568.84 0 0 -121.157 -211.842 0 0 -594.671 -144.661 0z" />
      </glyph>
      <glyph
         horiz-adv-x="667"
         id="glyph2231"
         unicode="Χ">
        <path
           id="path2233"
           d="M0 0l244.664 373.499 -221.668 342.329 168.838 0 143.669 -229.995 140.492 229.995 167.503 0 -222.661 -347.656 244.664 -368.172 -174.33 0 -158.669 247.499 -159.165 -247.499 -173.338 0z" />
      </glyph>
      <glyph
         horiz-adv-x="667"
         id="glyph2235"
         unicode="Ρ">
        <path
           id="path2237"
           d="M72.8383 0l0 715.828 231.826 0c87.8382,0 145.169,-3.6614 171.838,-10.8307 40.9959,-10.6653 75.4958,-33.992 103.169,-69.9919 27.6613,-35.9999 41.492,-82.4997 41.492,-139.334 0,-44.0077 -7.99603,-80.9997 -23.9999,-110.834 -15.9921,-29.9999 -36.1652,-53.5037 -60.8265,-70.6651 -24.5078,-17.0078 -49.4998,-28.3345 -74.8344,-33.8384 -34.4999,-6.83856 -84.5075,-10.3346 -149.999,-10.3346l-94.1689 0 0 -269.999 -144.495 0zm144.495 594.671l0 -203.007 79.0036 0c56.9998,0 95.161,3.67321 114.33,11.1732 19.1692,7.49997 34.1692,19.1574 45.1652,35.1613 10.8307,16.0039 16.3346,34.4999 16.3346,55.6651 0,26.0078 -7.66532,47.5037 -22.996,64.4997 -15.1771,16.8425 -34.677,27.5078 -58.0037,31.6652 -17.3385,3.34251 -52.0037,4.8425 -103.996,4.8425l-69.8383 0z" />
      </glyph>
      <glyph
         horiz-adv-x="222"
         id="glyph2239"
         unicode="ί">
        <path
           id="path2241"
           d="M66.8346 0l0 518.504 88 0 0 -518.504 -88 0zm-18.5039 583.008l65.0079 136.661 115.165 0 -107.339 -136.661 -72.8346 0z" />
      </glyph>
      <glyph
         horiz-adv-x="578"
         id="glyph2243"
         unicode="ά">
        <path
           id="path2245"
           d="M450.661 518.504l89.8425 0c-22.8346,-71.4961 -43.8425,-158 -63.0079,-259.165 22.8346,-125.669 43.8425,-212.173 63.0079,-259.339l-87.3386 0c-14,32.5039 -24.6614,64.1732 -31.8268,94.6614 -27.0079,-70.8346 -83.5118,-106.331 -169.339,-106.331 -65.1654,0 -117.496,24.3307 -157.339,73.1654 -39.6535,48.8346 -59.4961,115.165 -59.4961,198.835 0,85.8425 20,152.331 59.8425,199.339 39.8268,47.1654 92.6614,70.6614 158.488,70.6614 40.6772,0 73.8425,-8.33071 99.5118,-24.6614 25.6535,-16.5039 49.6535,-41.4961 71.8268,-75.0079 2.33071,11.3386 10.8346,40.6772 25.8268,87.8425zm-182.661 -61.0079c-42,0 -75.1654,-16.8346 -99.4961,-50.8346 -24.5039,-33.8268 -36.6772,-82.6614 -36.6772,-146.331 0,-62.3307 11.5118,-110.992 34.6772,-146.504 23.1654,-35.4961 55.3228,-53.3228 96.6614,-53.3228 40.3307,0 74,17.4961 101.165,52.5039 27.0079,34.9921 40.5039,85.3228 40.5039,151.165 0,63.8268 -12.6614,112 -37.8268,144.488 -25.3386,32.5039 -58.1732,48.8346 -99.0079,48.8346zm-40.5039 125.512l65.0079 136.661 115.165 0 -107.339 -136.661 -72.8346 0z" />
      </glyph>
      <glyph
         horiz-adv-x="445"
         id="glyph2247"
         unicode="έ">
        <path
           id="path2249"
           d="M404.842 460.003l-63.0043 -50.8343c-40.006,30.3305 -77.4987,45.5052 -112.346,45.5052 -28.6675,0 -49.4926,-7.67239 -62.8154,-22.9983 -13.1716,-15.3448 -19.6723,-31.8423 -19.6723,-49.3414 0,-22.8282 9.65663,-41.8391 29.3289,-56.8437 19.5022,-15.1558 48.1698,-22.8282 85.8325,-22.8282 5.00784,0 13.0015,0.170078 24.5101,0.510233l0 -73.6814c-10.507,0.340155 -18.3495,0.510233 -23.5085,0.510233 -46.5068,0 -78.8404,-8.99522 -96.8309,-26.8345 -18.1605,-18.0093 -27.1746,-38.173 -27.1746,-60.661 0,-22.9983 9.1653,-42.5005 27.3447,-58.3366 18.1605,-15.666 39.836,-23.6786 64.9886,-23.6786 45.8454,0 88.8372,21.3353 128.843,64.0059l63.0043 -53.1587c-52.006,-55.3319 -116.843,-82.9979 -194.342,-82.9979 -60.8311,0 -106.336,15.3259 -136.176,46.3178 -29.9904,31.0108 -44.995,66.8405 -44.995,107.848 0,58.9981 28.6675,100.818 86.0026,125.498 -47.8296,27.1557 -71.8295,64.3272 -71.8295,111.836 0,38.8344 14.1731,73.4925 42.5005,104.333 28.3274,30.6518 71.8295,46.1666 130.336,46.1666 67.1618,0 123.665,-23.5085 170.002,-70.3366zm-226.166 123.004l64.9886 136.667 115.161 0 -107.319 -136.667 -72.831 0z" />
      </glyph>
      <glyph
         horiz-adv-x="556"
         id="glyph2251"
         unicode="ή">
        <path
           id="path2253"
           d="M67.8293 0l0 518.5 79.168 0 0 -73.6606c37.9979,56.9901 93.0038,85.4987 165.004,85.4987 42.3309,0 77.8316,-9.1654 106.502,-27.3342 28.657,-18.3308 47.5008,-40.8326 56.8282,-67.6673 9.34087,-26.8348 13.9978,-65.6696 13.9978,-116.504l0 -517.501 -87.9959 0 0 514.167c0,48.1757 -8.50398,83.339 -25.3364,105.341 -16.9945,22.1643 -44.8281,33.3275 -83.5009,33.3275 -38.1599,0 -70.3265,-12.3375 -96.9993,-36.6616 -26.4973,-24.4995 -39.6582,-69.1657 -39.6582,-134.336l0 -283.169 -88.0094 0zm159.672 582.995l64.9947 136.671 115.168 0 -107.326 -136.671 -72.8372 0z" />
      </glyph>
      <glyph
         horiz-adv-x="556"
         id="glyph2255"
         unicode="ο">
        <path
           id="path2257"
           d="M33.1654 259.339c0,96 26.6614,167.165 80.1732,213.323 44.4882,38.3465 98.8346,57.6693 162.992,57.6693 71.3386,0 129.669,-23.3228 174.835,-70.1575 45.3386,-46.6772 67.8425,-111.165 67.8425,-193.512 0,-66.8346 -10,-119.323 -30,-157.496 -20,-38.3307 -49.1811,-68 -87.3386,-89.1654 -38.3307,-21.1654 -80,-31.6693 -125.339,-31.6693 -72.5039,0 -131.165,23.1654 -176,69.8425 -44.8346,46.4882 -67.1654,113.496 -67.1654,201.165zm90.3307 0c0,-66.5039 14.5039,-116.173 43.5118,-149.165 28.9921,-33.1654 65.4961,-49.6693 109.323,-49.6693 43.6693,0 80,16.6614 109.008,49.8268 28.8346,33.1654 43.3228,83.8425 43.3228,151.843 0,64.1575 -14.4882,112.835 -43.6535,145.827 -29.1811,33.0079 -65.3386,49.4961 -108.677,49.4961 -43.8268,0 -80.3307,-16.4882 -109.323,-49.3228 -29.0079,-32.8346 -43.5118,-82.5039 -43.5118,-148.835z" />
      </glyph>
      <glyph
         horiz-adv-x="499"
         id="glyph2259"
         unicode="ν">
        <path
           id="path2261"
           d="M210 0l-197.339 518.504 92.8346 0 111.339 -310.504c12,-33.4961 22.9921,-68.3307 33.1654,-104.504 7.82677,27.3386 18.6614,60.1732 32.6614,98.6772l115.339 316.331 90.3307 0 -196.331 -518.504 -82 0z" />
      </glyph>
      <glyph
         horiz-adv-x="441"
         id="glyph2263"
         unicode="ζ">
        <path
           id="path2265"
           d="M114.331 715.827l318.331 0 0 -59.4961c-87.6535,-54.1575 -161.165,-124.835 -220.488,-212.157 -59.3386,-87.5118 -89.1654,-168.346 -89.1654,-242.504 0,-39.0079 8.8189,-68 26.3307,-87.0079 17.6693,-18.8346 46.1575,-29.8268 85.4961,-33.1654 50.8346,-4.48819 86.8346,-10.1575 108.173,-16.8346 21.3228,-6.66142 40,-20.3307 56,-40.9921 15.8268,-20.6614 23.8268,-45.4961 23.8268,-74.5039 0,-31.4961 -9.66929,-60.6614 -29.3386,-87.3386 -19.4961,-26.6614 -42,-45.4961 -67.4961,-56.1575 -25.6693,-10.6772 -56.8346,-16.1732 -93.4961,-16.1732l23.8268 81.1654c54.6772,6.17323 82,29.0079 82,68.8346 0,13.3386 -4.33071,25.0079 -13.1654,35.1654 -8.83465,10 -19.4961,16.5039 -32.1575,19.5118 -12.6772,2.8189 -36.8346,4.99213 -72.3465,6.33071 -49.1654,1.32283 -86.1575,11.1654 -110.992,29.4961 -25.0079,18.5039 -43.6693,42.8346 -56,73.0079 -12.3307,30.3307 -18.5039,64.4882 -18.5039,102.488 0,77.1654 27.8425,156.677 83.4961,238.677 55.6693,81.8268 121.843,148.661 198.677,200.331l-203.008 0 0 71.3228z" />
      </glyph>
      <glyph
         horiz-adv-x="222"
         id="glyph2267"
         unicode="ι">
        <path
           id="path2269"
           d="M66.8346 0l0 518.504 88 0 0 -518.504 -88 0z" />
      </glyph>
      <glyph
         horiz-adv-x="556"
         id="glyph2271"
         unicode="δ">
        <path
           id="path2273"
           d="M85.0079 715.827l390.992 0 0 -71.3228 -273.339 0c32.5039,-33.1654 83.5118,-73.6693 152.835,-121.496 61.8425,-43.0079 105.008,-82.8346 129.339,-119.669 24.5039,-36.8346 36.6614,-86.6772 36.6614,-149.512 0,-84.1575 -22.6614,-149.654 -68.1575,-196 -45.3386,-46.3307 -104.504,-69.4961 -177.512,-69.4961 -79.6535,0 -139.827,26 -180.157,78 -40.3307,52.1732 -60.5039,114 -60.5039,185.669 0,83.3386 21.3386,146.835 64,190.661 42.6614,43.6693 93.4961,66.8346 152.835,69.0079 -30.3307,21.1654 -86,68.1575 -166.992,140.661l0 63.4961zm40 -464.819c0,-55.3386 14.4882,-101.008 43.6535,-136.677 29.1654,-35.8268 66.3465,-53.8268 111.669,-53.8268 39.6693,0 74.6772,15.3228 105.165,46 30.5039,30.5039 45.6693,78.8346 45.6693,144.992 0,61.1654 -14.5039,108.504 -43.4961,142 -29.0079,33.6693 -65.3386,50.3307 -109.339,50.3307 -48.5039,0 -86.1575,-18.8189 -112.992,-56.6614 -26.8346,-37.6693 -40.3307,-83.1654 -40.3307,-136.157z" />
      </glyph>
      <glyph
         horiz-adv-x="445"
         id="glyph2275"
         unicode="ε">
        <path
           id="path2277"
           d="M404.835 460l-63.0079 -50.8346c-40,30.3307 -77.4961,45.4961 -112.331,45.4961 -28.6614,0 -49.4961,-7.65354 -62.8346,-22.9921 -13.1654,-15.3386 -19.6535,-31.8425 -19.6535,-49.3386 0,-22.8346 9.65354,-41.8268 29.3228,-56.8346 19.4961,-15.1654 48.1732,-22.8346 85.8425,-22.8346 4.99213,0 12.9921,0.173228 24.4882,0.503937l0 -73.6693c-10.4882,0.330709 -18.3307,0.503937 -23.4961,0.503937 -46.5039,0 -78.8346,-8.99213 -96.8346,-26.8346 -18.1575,-18 -27.1654,-38.1575 -27.1654,-60.6614 0,-23.0079 9.16535,-42.5039 27.3386,-58.3307 18.1575,-15.6693 39.8268,-23.6693 64.9921,-23.6693 45.8425,0 88.8346,21.3228 128.835,64l63.0079 -53.1654c-52,-55.3386 -116.835,-83.0079 -194.331,-83.0079 -60.8346,0 -106.346,15.3386 -136.173,46.3307 -30,31.0079 -45.0079,66.8346 -45.0079,107.843 0,58.9921 28.6772,100.835 86,125.496 -47.8268,27.1654 -71.8268,64.3307 -71.8268,111.827 0,38.8346 14.1732,73.5118 42.5039,104.346 28.3307,30.6614 71.8268,46.1575 130.331,46.1575 67.1654,0 123.669,-23.4961 170,-70.3307z" />
      </glyph>
      <glyph
         horiz-adv-x="499"
         id="glyph2279"
         unicode="κ">
        <path
           id="path2281"
           d="M65.4961 518.504l87.3386 0 0 -203.496 210.504 203.496 116.157 0 -232 -215.339 252 -303.165 -112.331 0 -202.157 244.173 -32.1732 -29.8425 0 -214.331 -87.3386 0 0 518.504z" />
      </glyph>
      <glyph
         horiz-adv-x="556"
         id="glyph2283"
         unicode="η">
        <path
           id="path2285"
           d="M67.8421 0l0 518.491 79.1617 0 0 -73.6625c38.0029,57.0138 92.9947,85.5113 164.994,85.5113 42.3304,0 77.8389,-9.1653 106.506,-27.3447 28.6675,-18.3306 47.4895,-40.8375 56.8248,-67.6531 9.33537,-26.8345 14.0031,-65.6689 14.0031,-116.503l0 -517.509 -88.0057 0 0 514.164c0,48.1698 -8.48499,83.3381 -25.3227,105.335 -17.0078,22.1668 -44.8438,33.3352 -83.5081,33.3352 -38.1541,0 -70.3366,-12.3401 -97.001,-36.6612 -26.4943,-24.5101 -39.6659,-69.1649 -39.6659,-134.342l0 -283.16 -87.9868 0z" />
      </glyph>
      <glyph
         horiz-adv-x="500"
         id="glyph2287"
         unicode="λ">
        <path
           id="path2289"
           d="M249.504 387.664l-145.001 -387.664 -92.8435 0 192.509 508.835 -77.1775 207.003 92.6734 0 267.664 -715.838 -92.8246 0 -145.001 387.664z" />
      </glyph>
      <glyph
         horiz-adv-x="576"
         id="glyph2291"
         unicode="μ">
        <path
           id="path2293"
           d="M497.005 518.491l0 -518.491 -78.5003 0 0 61.4925c-17.0078,-25.9841 -33.6754,-43.9934 -50.343,-53.6501 -22.8282,-13.3416 -49.3225,-20.0125 -79.653,-20.0125 -27.0046,0 -50.8343,5.3291 -71.6783,16.0062 -15.666,8.16373 -32.825,24.3211 -51.8359,48.3399l0 -250.846 -86.8341 0 0 717.161 86.8341 0 0 -219.665c0,-79.8231 4.34643,-131.489 12.6802,-154.997 8.48499,-23.6597 22.318,-42.3304 41.3289,-55.9933 18.992,-13.6629 40.9887,-20.5038 65.6689,-20.5038 26.003,0 49.3225,7.16216 69.8263,21.5054 20.5038,14.3243 34.9982,32.825 43.5021,55.502 8.33381,22.488 12.6613,73.6625 12.6613,152.994l0 221.158 86.3428 0z" />
      </glyph>
      <glyph
         horiz-adv-x="556"
         id="glyph2295"
         unicode="θ">
        <path
           id="path2297"
           d="M44.995 357.825c0,246.839 77.6688,370.183 233.347,370.183 155.659,0 233.328,-123.344 233.328,-370.183 0,-246.329 -77.6688,-369.484 -233.328,-369.484 -155.678,0 -233.347,123.155 -233.347,369.484zm90.6703 35.6785l285.164 0c-3.15589,101.99 -17.8204,171.155 -43.8233,207.495 -26.1731,36.51 -59.3382,54.8406 -99.6655,54.8406 -90.8404,0 -138.009,-87.5144 -141.675,-262.335zm285.164 -70.6767l-285.164 0c3.66612,-174.821 51.1745,-262.335 142.676,-262.335 91.823,0 139.331,87.5144 142.487,262.335z" />
      </glyph>
      <glyph
         horiz-adv-x="578"
         id="glyph2299"
         unicode="α">
        <path
           id="path2301"
           d="M450.67 518.5l89.8317 0c-22.8392,-71.5009 -43.8292,-157.998 -62.9969,-259.169 22.8257,-125.67 43.8292,-212.167 62.9969,-259.331l-87.3345 0c-13.9978,32.5041 -24.6615,64.1713 -31.8292,94.6641 -27.0102,-70.826 -83.5009,-106.327 -169.337,-106.327 -65.1701,0 -117.503,24.3241 -157.337,73.1612 -39.6582,48.8371 -59.5008,115.168 -59.5008,198.831 0,85.8362 20.0046,152.343 59.8383,199.33 39.8337,47.1768 92.6663,70.6775 158.498,70.6775 40.6706,0 73.8361,-8.34199 99.4965,-24.675 25.6739,-16.495 49.674,-41.494 71.8383,-74.997 2.33522,11.3386 10.8257,40.6706 25.8359,87.8339zm-182.673 -60.9991c-41.9934,0 -75.1589,-16.8325 -99.4965,-50.8349 -24.4995,-33.8269 -36.6616,-82.664 -36.6616,-146.336 0,-62.3355 11.5006,-110.997 34.6638,-146.498 23.1632,-35.5007 55.3298,-53.3321 96.6619,-53.3321 40.3331,0 73.9981,17.4939 101.17,52.4952 26.9967,35.0013 40.4951,85.3367 40.4951,151.168 0,63.8338 -12.6615,112.01 -37.8359,144.5 -25.3229,32.5041 -58.1645,48.8371 -98.9971,48.8371z" />
      </glyph>
      <glyph
         horiz-adv-x="546"
         id="glyph2303"
         unicode="ύ">
        <path
           id="path2305"
           d="M66.4318 518.354l87.8131 0.0607423 0 -307.133c0.0404948,-52.947 11.8852,-91.3564 35.6962,-115.188 23.7502,-23.649 51.4487,-35.5545 83.3789,-35.6152 26.4026,0 49.4037,7.53204 68.8412,22.5759 19.478,14.8819 33.145,32.1732 40.5353,51.5904 7.51179,19.5995 11.2981,47.3587 11.2373,83.5814l-0.0202474 300.229 87.4689 -0.0404948 -0.0607423 -303.691c-0.0404948,-77.1427 -19.2958,-134.058 -57.5229,-171.05 -38.4296,-36.8706 -89.0077,-55.4172 -151.835,-55.3565 -48.4723,-0.0404948 -88.6432,10.7716 -120.351,32.4566 -31.8492,21.6647 -53.8986,46.6501 -66.4723,74.8547 -12.4319,28.4071 -18.7896,66.9177 -18.7491,115.755l0.0404948 306.971zm149.224 64.488l65.0145 136.65 115.107 -0.0404948 -107.291 -136.589 -72.83 -0.0202474z" />
      </glyph>
      <glyph
         horiz-adv-x="556"
         id="glyph2307"
         unicode="ό">
        <path
           id="path2309"
           d="M33.1651 259.331c0,95.9994 26.6644,167.167 80.1633,213.334 44.5037,38.3431 98.834,57.6752 163.01,57.6752 71.3192,0 129.656,-23.3384 174.821,-70.1665 45.3351,-46.6769 67.8421,-111.174 67.8421,-193.511 0,-66.8216 -9.99679,-119.338 -30.0093,-157.492 -19.9936,-38.3431 -49.1524,-68.0122 -87.3254,-89.1774 -38.3242,-21.1652 -79.9932,-31.6533 -125.328,-31.6533 -72.5098,0 -131.168,23.1684 -176.011,69.8263 -44.8249,46.5068 -67.1618,113.498 -67.1618,201.164zm90.3301 0c0,-66.5004 14.5133,-116.163 43.5021,-149.158 29.0077,-33.1651 65.4988,-49.6816 109.341,-49.6816 43.6533,0 79.9932,16.6676 109.001,49.8517 28.8187,33.1651 43.332,83.8294 43.332,151.823 0,64.176 -14.5133,112.837 -43.6722,145.832 -29.1589,32.9951 -65.3287,49.5115 -108.661,49.5115 -43.8422,0 -80.3334,-16.5164 -109.341,-49.3414 -28.9888,-32.825 -43.5021,-82.5066 -43.5021,-148.837zm104.012 323.677l64.9886 136.667 115.161 0 -107.319 -136.667 -72.831 0z" />
      </glyph>
      <glyph
         horiz-adv-x="689"
         id="glyph2311"
         unicode="π">
        <path
           id="path2313"
           d="M246.661 447.339l0 -447.339 -88 0 0 447.339 -136.661 0 0 71.1654 646.504 0 0 -71.1654 -118.173 0 0 -447.339 -88 0 0 447.339 -215.669 0z" />
      </glyph>
      <glyph
         horiz-adv-x="780"
         id="glyph2315"
         unicode="ώ">
        <path
           id="path2317"
           d="M119.669 518.504l84.9921 0c-48.4882,-107.008 -72.8346,-197.496 -72.8346,-271.496 0,-56.8346 10.5039,-102.835 31.3386,-137.669 20.8346,-34.8346 47.3386,-52.1732 79.4961,-52.1732 20.8346,0 40.3465,8.17323 58.6772,24.3307 18.1575,16.3307 30.3307,35.8425 36.3307,58.6772 6,22.8346 8.99213,54.6614 8.99213,95.6535l0 151.843 87.5118 0 0 -151.843c0,-40 2.99213,-71.8268 8.99213,-95.1654 6,-23.4961 18.1732,-43.3228 36.5039,-59.3228 18.5039,-16.1732 38,-24.1732 58.8346,-24.1732 32,0 58.3307,17.3386 79.1654,52 20.8346,34.6614 31.3386,80.6614 31.3386,137.843 0,74 -24.1732,164.488 -72.3465,271.496l84.5039 0c51.3386,-91.3386 77.1654,-180.173 77.1654,-266 0,-86.3307 -17.8268,-151.843 -53.4961,-196.835 -35.6693,-45.0079 -81.1654,-67.3386 -136.504,-67.3386 -73.4961,0 -126.157,38.8346 -157.669,116.677 -32,-77.8425 -84.6614,-116.677 -158.157,-116.677 -58.3307,0 -104.504,23.4961 -138.677,70.6772 -34.3307,47.3228 -51.3228,111.654 -51.3228,193.496 0,85.8268 25.6693,174.661 77.1654,266zm222.992 64.5039l65.0079 136.661 115.165 0 -107.339 -136.661 -72.8346 0z" />
      </glyph>
      <glyph
         horiz-adv-x="481"
         id="glyph2319"
         unicode="ς">
        <path
           id="path2321"
           d="M471.669 513.669l-20.5039 -73.1654c-36.5039,11.3228 -72.8346,16.9921 -109.339,16.9921 -65.4961,0 -117.496,-20.1575 -156.331,-60.8346 -38.6614,-40.4882 -58,-88 -58,-142.835 0,-37.6535 10.6772,-71.1654 32,-100.331 21.1654,-28.9921 63.5118,-52 126.677,-68.4882 45.1654,-12 78,-23.3386 98.1575,-34 20.1732,-10.5039 35.8425,-25.1811 47.3386,-44 11.3386,-18.6772 16.9921,-40.1732 16.9921,-64.6772 0,-44.5039 -18,-81.1654 -54.1575,-109.827 -36.1732,-28.6772 -81.1654,-43.0079 -135.165,-43.0079 -21.8425,0 -46.6772,2.33071 -74.3307,6.83465l21.4961 80.6614c18.9921,-4 35.3228,-5.82677 49.3228,-5.82677 31.3386,0 55.8425,6.66142 73.8425,20.1732 17.8268,13.4961 26.8346,29.8268 26.8346,49.1654 0,17.4961 -6.50394,30.9921 -19.3386,40.1575 -12.8346,9.33858 -39.8268,18.3307 -80.8346,27.1654 -72.1575,15.3386 -126,43.5118 -161.323,84.5039 -35.3386,41.0079 -53.0079,89.8425 -53.0079,146.504 0,78.3307 28,146.661 84.1732,204.504 56.1575,58 131.827,86.9921 226.835,86.9921 40,0 79.6535,-5.66929 118.661,-16.6614z" />
      </glyph>
      <glyph
         horiz-adv-x="546"
         id="glyph2323"
         unicode="υ">
        <path
           id="path2325"
           d="M66.3303 518.491l88.0057 0 0 -306.99c0,-53.1587 11.8298,-91.5018 35.6596,-115.332 23.6786,-23.6786 51.4957,-35.6785 83.5081,-35.6785 26.3242,0 49.3225,7.50231 68.8248,22.5069 19.5022,15.0046 33.014,32.1636 40.4974,51.8359 7.50231,19.5022 11.1684,47.3383 11.1684,83.5081l0 300.149 87.5144 0 0 -303.664c0,-77.1586 -19.3511,-134.153 -57.6752,-171.155 -38.3242,-36.8313 -89.0073,-55.3319 -151.842,-55.3319 -48.491,0 -88.6672,10.8283 -120.321,32.4848 -31.8423,21.5054 -54.0091,46.5068 -66.5004,74.8342 -12.5102,28.3463 -18.8408,67.0106 -18.8408,115.842l0 306.99z" />
      </glyph>
      <glyph
         horiz-adv-x="395"
         id="glyph2327"
         unicode="τ">
        <path
           id="path2329"
           d="M247.007 447.336l0 -447.336 -87.8339 0 0 447.336 -136.671 0 0 71.1634 349.5 0 0 -71.1634 -124.995 0z" />
      </glyph>
      <glyph
         horiz-adv-x="617"
         id="glyph2331"
         unicode="σ">
        <path
           id="path2333"
           d="M595.17 518.5l0 -71.1634 -141.004 0c43.1678,-40.5086 64.8327,-103.33 64.8327,-188.505 0,-92.8283 -23.6626,-161.171 -71.0014,-204.838 -47.3253,-43.8292 -104.828,-65.6561 -172.658,-65.6561 -70.34,0 -128.167,22.6638 -173.846,68.3288 -45.4895,45.503 -68.3288,113.17 -68.3288,202.665 0,92.0049 23.6626,160.334 71.0014,204.5 47.5008,44.3422 104.504,66.5065 171.173,66.5065 24.4995,0 52.1577,-4.00902 82.988,-11.8381l236.842 0zm-321.167 -60.9991c-42.6684,0 -78.5065,-16.495 -107.339,-49.836 -28.6705,-33.1655 -43.1678,-82.826 -43.1678,-148.833 0,-65.8316 14.1733,-115.33 42.3309,-148.496 28.1711,-33.1655 64.6707,-49.836 109.512,-49.836 47.3253,0 84.8238,17.3319 112.657,51.9957 27.8336,34.6773 41.6695,83.6764 41.6695,146.835 0,57.5031 -12.837,105.004 -38.3354,142.34 -25.4984,37.161 -64.6707,55.8293 -117.328,55.8293z" />
      </glyph>
      <glyph
         horiz-adv-x="524"
         id="glyph2335"
         unicode="χ">
        <path
           id="path2337"
           d="M23.5007 518.5l95.663 0 142.502 -287.002 147.497 287.002 96.6754 0 -190.341 -353.495 200.167 -363.673 -100.171 0 -153.827 299.34 -155.164 -299.34 -98.1737 0 199.668 360.839 -184.496 356.33z" />
      </glyph>
      <glyph
         horiz-adv-x="568"
         id="glyph2339"
         unicode="ρ">
        <path
           id="path2341"
           d="M63.9958 -198.669l0 439.831c0,98.3357 19.3432,171.173 58.0025,218.336 38.8348,47.1633 95.1635,70.8395 169,70.8395 73.6741,0 132.5,-25.1745 176.505,-75.3344 44.1667,-49.998 66.169,-115.168 66.169,-195.173 0,-80.4908 -21.0035,-145.836 -63.1724,-196.158 -42.1689,-50.1735 -97.6607,-75.3344 -166.327,-75.3344 -64.1713,0 -114.844,20.3286 -152.343,60.9991l0 -248.006 -87.8339 0zm229.999 656.169c-42.6549,0 -76.8327,-16.333 -102.655,-48.9991 -25.6739,-32.828 -38.5109,-84.8373 -38.5109,-156.001 0,-64.1713 12.675,-112.171 38.1734,-144.163 25.3364,-31.8427 59.8248,-47.8382 103.492,-47.8382 43.8427,0 79.6674,16.495 107.339,49.6605 27.6717,33.0035 41.494,81.1792 41.494,144.676 0,72.3243 -14.8212,124.158 -44.3287,155.501 -29.6694,31.4917 -64.6707,47.1633 -105.004,47.1633z" />
      </glyph>
    </font>
</defs>
</svg>
